<?xml version="1.0" standalone="no"?>
<!DOCTYPE svg PUBLIC "-//W3C//DTD SVG 20010904//EN"
 "http://www.w3.org/TR/2001/REC-SVG-20010904/DTD/svg10.dtd">
<svg version="1.0" xmlns="http://www.w3.org/2000/svg"
 width="1088.000000pt" height="1088.000000pt" viewBox="0 0 1088.000000 1088.000000"
 preserveAspectRatio="xMidYMid meet">
<metadata>
Created by potrace 1.14, written by Peter Selinger 2001-2017
</metadata>
<g transform="translate(0.000000,1088.000000) scale(0.100000,-0.100000)"
fill="#000000" stroke="none">
<path d="M4319 10853 c-1 -66 -1 -259 1 -268 1 -5 1 -14 0 -20 -5 -26 -2 -144
4 -154 4 -6 3 -11 -2 -11 -5 0 -6 -17 -2 -40 4 -22 4 -40 0 -40 -4 0 -5 -15
-1 -32 4 -18 4 -46 1 -63 -4 -16 -3 -39 0 -50 4 -11 4 -31 0 -45 -3 -14 -3
-42 1 -62 3 -22 2 -38 -3 -38 -5 0 -6 -4 -3 -10 7 -12 10 -158 3 -166 -3 -3
-2 -20 2 -39 4 -19 5 -37 2 -40 -3 -3 -5 -25 -4 -48 l2 -42 -95 -62 c-52 -35
-99 -63 -105 -63 -5 0 -10 -4 -10 -8 0 -4 -15 -16 -32 -27 -35 -20 -456 -299
-548 -362 -55 -38 -210 -153 -220 -163 -3 -3 -34 -29 -70 -59 -100 -83 -251
-239 -308 -318 -71 -97 -135 -221 -167 -322 -30 -98 -33 -117 -40 -229 -2 -46
-7 -87 -10 -92 -3 -5 -1 -11 4 -14 6 -4 6 -18 1 -36 -5 -19 -5 -30 1 -30 6 0
7 -5 4 -10 -4 -6 -6 -32 -6 -58 1 -63 1 -80 0 -94 0 -7 1 -30 3 -50 3 -21 1
-38 -3 -38 -4 0 -4 -13 1 -30 5 -16 5 -32 0 -35 -5 -3 -5 -18 -1 -33 5 -15 4
-37 0 -50 -5 -12 -4 -22 1 -22 5 0 5 -13 0 -30 -5 -19 -5 -30 1 -30 6 0 7 -5
4 -10 -9 -14 -10 -108 -2 -116 3 -4 2 -14 -3 -23 -5 -10 -5 -23 0 -30 4 -8 4
-27 0 -42 -5 -16 -5 -29 0 -29 5 0 5 -13 0 -29 -4 -16 -6 -32 -3 -35 8 -7 9
-116 1 -116 -4 0 -3 -13 2 -30 5 -16 6 -30 2 -30 -6 0 -7 -146 -2 -160 1 -3 1
-9 0 -15 -6 -27 -4 -165 2 -165 4 0 3 -11 -2 -25 -6 -16 -6 -25 1 -25 6 0 6
-7 2 -17 -10 -21 -9 -222 0 -247 4 -9 3 -15 -1 -12 -6 3 -8 -139 -2 -154 1 -3
1 -9 0 -15 -2 -8 -1 -267 0 -325 1 -8 0 -43 -2 -77 -2 -35 0 -63 4 -63 4 0 3
-11 -2 -25 -6 -16 -6 -25 1 -25 6 0 6 -7 2 -17 -10 -21 -9 -222 0 -247 4 -9 3
-15 -1 -12 -6 3 -8 -139 -2 -154 1 -3 1 -9 0 -15 -2 -8 -1 -267 0 -325 1 -8 0
-43 -2 -77 -2 -35 0 -63 4 -63 4 0 3 -11 -2 -25 -6 -16 -6 -25 1 -25 6 0 6 -7
2 -17 -10 -21 -9 -222 0 -247 4 -9 3 -15 -1 -12 -6 3 -8 -139 -2 -154 1 -3 1
-9 0 -15 -2 -8 -1 -267 0 -325 1 -8 0 -43 -2 -77 -2 -35 0 -63 4 -63 4 0 3
-11 -2 -25 -6 -16 -6 -25 1 -25 6 0 6 -7 2 -17 -10 -21 -9 -222 0 -247 4 -9 3
-15 -1 -12 -8 5 -8 -51 1 -60 3 -3 2 -16 -3 -28 -4 -13 -5 -28 -1 -34 4 -7 5
-35 1 -62 -4 -27 -3 -55 1 -61 4 -7 3 -25 -1 -40 -5 -16 -5 -29 0 -29 5 0 5
-13 0 -29 -4 -15 -4 -34 0 -42 5 -7 5 -20 0 -29 -5 -9 -5 -22 -1 -28 4 -7 5
-35 1 -62 -4 -27 -3 -55 1 -61 4 -7 3 -25 -1 -40 -5 -16 -5 -29 0 -29 5 0 5
-13 0 -29 -4 -15 -4 -34 0 -42 5 -7 5 -20 0 -29 -5 -9 -5 -22 -1 -28 4 -7 5
-35 1 -62 -4 -27 -3 -55 1 -61 4 -7 3 -25 -1 -40 -5 -16 -5 -29 0 -29 5 0 5
-13 0 -29 -4 -15 -4 -34 0 -42 5 -7 5 -20 0 -29 -5 -9 -5 -22 -1 -28 4 -7 5
-35 1 -62 -4 -27 -3 -55 1 -61 4 -7 3 -25 -1 -40 -5 -16 -5 -29 0 -29 5 0 5
-13 0 -29 -4 -15 -4 -34 0 -42 5 -7 5 -20 0 -29 -5 -9 -5 -22 -1 -28 4 -7 5
-35 1 -62 -4 -27 -3 -55 1 -61 4 -7 3 -25 -1 -40 -5 -16 -5 -29 0 -29 5 0 5
-13 0 -29 -4 -15 -4 -34 0 -42 5 -7 5 -20 0 -29 -5 -9 -5 -22 -1 -28 4 -7 5
-35 1 -62 -4 -27 -3 -55 1 -61 4 -7 3 -25 -1 -40 -5 -16 -5 -29 0 -29 5 0 5
-13 0 -29 -4 -15 -4 -34 0 -42 5 -7 5 -20 0 -29 -5 -9 -5 -22 -1 -28 4 -7 5
-35 1 -62 -4 -27 -3 -55 1 -61 4 -7 3 -25 -1 -40 -5 -16 -5 -29 0 -29 5 0 5
-13 0 -29 -4 -15 -4 -34 0 -42 5 -7 5 -20 0 -29 -5 -9 -5 -22 -1 -28 4 -7 5
-35 1 -62 -4 -27 -3 -55 1 -61 4 -7 3 -25 -1 -40 -5 -16 -5 -29 0 -29 5 0 5
-13 0 -29 -4 -15 -4 -34 0 -42 5 -7 5 -20 0 -30 -5 -9 -6 -19 -3 -23 8 -8 7
-102 -2 -116 -3 -5 -2 -10 4 -10 6 0 6 -11 1 -30 -5 -17 -5 -30 0 -30 5 0 6
-10 1 -22 -4 -13 -5 -35 0 -50 4 -15 4 -30 -1 -33 -5 -3 -5 -19 0 -35 5 -17 6
-30 2 -30 -4 0 -7 -18 -7 -40 0 -22 3 -40 7 -40 4 0 3 -13 -2 -30 -5 -16 -5
-30 -1 -30 4 0 7 -10 7 -22 -1 -13 4 -23 11 -23 6 0 14 -3 18 -7 4 -4 17 -3
30 2 13 5 25 6 28 3 8 -7 106 -8 113 0 3 3 19 1 35 -3 16 -5 29 -6 29 -2 0 8
85 6 106 -2 8 -3 14 -1 14 3 0 5 15 6 33 2 17 -4 47 -4 65 0 17 3 32 3 32 -2
0 -4 13 -4 29 1 16 4 32 6 35 2 8 -7 134 -5 146 3 6 3 10 1 10 -5 0 -6 4 -8
10 -5 13 8 108 11 115 3 4 -3 20 -2 36 2 16 5 31 5 34 0 3 -5 15 -6 29 0 12 4
29 4 36 0 8 -5 21 -5 30 0 9 5 22 5 28 1 7 -4 35 -5 62 -1 27 4 55 3 62 -1 6
-4 19 -4 29 1 9 5 19 6 23 3 8 -8 122 -6 135 2 5 3 12 2 15 -3 3 -4 30 -5 61
-2 31 3 58 3 61 -1 2 -4 18 -4 34 1 17 5 30 6 30 2 0 -8 97 -5 117 2 7 3 14 2
17 -3 3 -4 30 -4 61 -1 31 3 58 3 61 -1 2 -4 18 -4 34 1 17 5 32 5 35 0 3 -5
16 -5 30 0 15 6 27 6 30 0 3 -6 15 -6 29 0 13 5 26 6 29 3 8 -7 106 -8 113 0
3 3 19 1 35 -3 16 -5 29 -6 29 -2 0 8 85 6 106 -2 8 -3 14 -1 14 3 0 5 15 6
33 2 17 -4 47 -4 65 0 17 3 32 3 32 -2 0 -4 13 -4 29 1 16 4 32 6 35 2 8 -7
134 -5 146 3 6 3 10 1 10 -5 0 -6 4 -8 10 -5 13 8 108 11 115 3 4 -3 20 -2 36
2 16 5 31 5 34 0 3 -5 15 -6 29 0 12 4 29 4 36 0 8 -5 21 -5 30 0 9 5 22 5 28
1 7 -4 35 -5 62 -1 27 4 55 3 62 -1 6 -4 19 -4 29 1 9 5 19 6 23 3 8 -8 122
-6 135 2 5 3 12 2 15 -3 3 -4 30 -5 61 -2 31 3 58 3 61 -1 2 -4 18 -4 34 1 17
5 30 6 30 2 0 -8 97 -5 117 2 7 3 14 2 17 -3 3 -4 30 -4 61 -1 31 3 58 3 61
-1 2 -4 18 -4 34 1 17 5 32 5 35 0 3 -5 16 -5 30 0 15 6 27 6 30 0 3 -6 15 -6
29 0 13 5 26 6 29 3 8 -7 106 -8 113 0 3 3 19 1 35 -3 16 -5 29 -6 29 -2 0 8
85 6 106 -2 8 -3 14 -1 14 3 0 5 15 6 33 2 17 -4 47 -4 65 0 17 3 32 3 32 -2
0 -4 13 -4 29 1 16 4 32 6 35 2 8 -7 134 -5 146 3 6 3 10 1 10 -5 0 -6 4 -8
10 -5 13 8 108 11 115 3 4 -3 20 -2 36 2 16 5 31 5 34 0 3 -5 15 -6 29 0 12 4
29 4 36 0 8 -5 21 -5 30 0 9 5 22 5 28 1 7 -4 35 -5 62 -1 27 4 55 3 62 -1 6
-4 19 -4 29 1 9 5 19 6 23 3 8 -8 122 -6 135 2 5 3 12 1 15 -4 3 -4 23 -5 43
-1 21 3 50 3 65 -1 16 -4 30 -3 33 1 3 5 16 5 30 0 16 -6 26 -5 33 3 13 17 22
57 12 57 -5 0 -5 14 0 30 5 17 5 30 0 30 -5 0 -6 10 -1 22 4 13 5 35 1 50 -5
14 -6 29 -3 32 8 8 9 126 1 126 -4 0 -3 13 2 29 4 15 5 33 1 40 -4 6 -5 34 -1
61 4 27 3 55 -1 61 -4 7 -3 25 1 40 5 16 5 29 0 29 -5 0 -5 13 0 29 4 15 4 34
0 42 -5 7 -5 20 0 29 5 9 5 22 1 28 -4 7 -5 35 -1 62 4 27 3 55 -1 61 -4 7 -3
25 1 40 5 16 5 29 0 29 -5 0 -5 13 0 29 4 15 4 34 0 42 -5 7 -5 20 0 29 5 9 5
22 1 28 -4 7 -5 35 -1 62 4 27 3 55 -1 62 -4 6 -4 19 1 28 5 9 5 22 0 29 -4 8
-4 27 0 42 5 16 5 29 0 29 -5 0 -5 13 0 29 4 16 6 32 2 35 -8 8 -5 102 3 116
3 5 2 10 -4 10 -6 0 -6 11 -1 30 5 17 5 30 0 30 -5 0 -6 10 -1 22 4 13 5 35 0
50 -4 15 -4 30 1 33 5 3 5 19 0 35 -5 17 -5 30 0 30 5 0 5 13 0 30 -5 17 -5
30 0 30 5 0 5 13 0 30 -5 16 -5 32 0 35 5 3 5 18 1 33 -5 15 -4 37 0 50 5 12
4 22 -1 22 -5 0 -5 13 0 30 5 19 5 30 -1 30 -6 0 -7 5 -4 10 9 14 10 108 2
116 -3 4 -2 14 3 23 5 10 5 23 0 30 -4 8 -4 27 0 42 5 16 5 29 0 29 -5 0 -5
13 0 29 4 15 5 33 1 40 -4 6 -5 34 -1 61 4 27 3 55 -1 61 -4 7 -3 25 1 40 5
16 5 29 0 29 -5 0 -5 13 0 29 4 15 4 34 0 42 -5 7 -5 20 0 29 5 9 5 22 1 28
-4 7 -5 35 -1 62 4 27 3 55 -1 61 -4 7 -3 25 1 40 5 16 5 29 0 29 -5 0 -5 13
0 29 4 15 4 34 0 42 -5 7 -5 20 0 29 5 9 5 21 1 28 -4 6 -4 37 -1 68 3 30 3
57 -1 60 -4 2 -3 20 1 39 5 21 4 35 -2 35 -5 0 -6 5 -3 11 10 15 12 139 3 139
-4 0 -4 10 0 23 4 12 6 47 5 77 -3 69 -3 81 0 158 1 34 -2 62 -6 62 -5 0 -5 5
-1 11 8 14 9 173 0 188 -4 6 -4 11 1 11 6 0 8 319 2 455 0 6 1 38 3 73 2 34 0
62 -4 62 -4 0 -3 11 2 25 6 16 6 25 -1 25 -6 0 -6 7 -2 17 10 21 9 222 0 247
-4 9 -3 15 1 12 8 -5 8 141 -1 150 -3 3 -3 16 1 28 4 11 6 46 5 76 -3 69 -3
81 0 158 1 34 -1 62 -5 62 -4 0 -4 10 0 23 4 12 6 47 5 77 -3 69 -3 81 0 158
1 34 -1 62 -5 62 -4 0 -4 10 0 23 4 12 6 47 5 77 -3 69 -3 81 0 158 1 34 -1
62 -5 62 -4 0 -4 10 0 23 4 12 6 47 5 77 -3 69 -3 81 0 158 1 34 -2 62 -6 62
-5 0 -5 5 -1 11 8 14 9 173 0 188 -4 6 -4 11 1 11 4 0 7 82 5 182 -2 191 -2
200 -1 221 0 6 -1 29 -3 50 -3 20 -1 37 3 37 4 0 4 13 -1 30 -5 16 -5 32 0 35
5 3 5 18 1 33 -5 15 -4 37 0 50 5 12 4 22 -1 22 -5 0 -5 13 0 30 5 19 5 30 -1
30 -6 0 -7 5 -4 10 9 14 10 108 2 116 -3 4 -2 14 3 23 5 10 5 23 0 30 -4 8 -4
27 0 42 5 16 5 29 0 29 -5 0 -5 13 0 29 4 15 5 33 1 40 -4 6 -5 34 -1 61 4 27
3 55 -1 61 -4 7 -3 25 1 40 5 16 5 29 0 29 -5 0 -5 13 0 29 4 15 4 34 0 42 -5
7 -5 20 0 30 5 9 7 19 4 21 -2 3 -7 54 -9 114 -5 116 -8 137 -18 169 -3 11 -8
31 -11 45 -16 86 -88 237 -167 350 -60 86 -239 269 -349 356 -41 32 -79 65
-83 71 -4 7 -14 13 -21 13 -8 0 -20 7 -27 16 -12 14 -46 40 -108 79 -8 6 -21
15 -28 22 -27 25 -452 303 -462 303 -6 0 -11 4 -11 8 0 4 -22 21 -50 37 -27
17 -50 33 -50 38 0 4 -5 7 -10 7 -21 0 -200 126 -199 140 1 8 0 20 -1 25 -1 6
-1 30 -1 55 2 56 2 63 1 128 0 29 1 56 3 60 3 4 1 16 -3 27 -4 11 -4 29 0 40
4 11 4 29 0 40 -4 11 -4 34 1 52 4 18 3 35 -1 38 -4 2 -4 22 0 42 3 21 3 50
-1 64 -3 15 -3 32 1 39 4 7 4 27 0 46 -4 18 -5 35 -3 38 8 7 6 264 -2 276 -3
5 -3 10 2 10 7 0 8 117 1 178 l-2 22 -1118 0 -1118 0 -1 -27z"/>
</g>
</svg>
